<?xml version="1.0" encoding="UTF-8"?>
<svg width="512" height="512" viewBox="0 0 512 512" version="1.1" xmlns="http://www.w3.org/2000/svg">
    <rect width="512" height="512" rx="64" fill="#3B82F6"/>
    <path d="M136,172 C134.895,172 134,172.895 134,174 L134,338 C134,339.105 134.895,340 136,340 L163,340 C164.105,340 165,339.105 165,338 L165,280 L225,280 C226.105,280 227,279.105 227,278 L227,254 C227,252.895 226.105,252 225,252 L165,252 L165,200 L235,200 C236.105,200 237,199.105 237,198 L237,174 C237,172.895 236.105,172 235,172 L136,172 Z" fill="white"/>
    <path d="M245,172 C243.895,172 243,172.895 243,174 L243,198 C243,199.105 243.895,200 245,200 L294,200 L294,338 C294,339.105 294.895,340 296,340 L330,340 C331.105,340 332,339.105 332,338 L332,200 L385,200 C386.105,200 387,199.105 387,198 L387,174 C387,172.895 386.105,172 385,172 L245,172 Z" fill="white"/>
    <path d="M334,256 C334,255.448 334.448,255 335,255 L347,255 C347.552,255 348,255.448 348,256 L348,340 C348,340.552 347.552,341 347,341 L335,341 C334.448,341 334,340.552 334,340 L334,256 Z" fill="white"/>
    <path d="M334,172 C334,171.448 334.448,171 335,171 L347,171 C347.552,171 348,171.448 348,172 L348,228 C348,228.552 347.552,229 347,229 L335,229 C334.448,229 334,228.552 334,228 L334,172 Z" fill="white"/>
</svg>